<?xml version="1.0" encoding="iso-8859-1"?>
<!-- Generator: Adobe Illustrator 17.1.0, SVG Export Plug-In . SVG Version: 6.00 Build 0)  -->
<!DOCTYPE svg PUBLIC "-//W3C//DTD SVG 1.1//EN" "http://www.w3.org/Graphics/SVG/1.1/DTD/svg11.dtd">
<svg version="1.1" id="Capa_1" xmlns="http://www.w3.org/2000/svg" xmlns:xlink="http://www.w3.org/1999/xlink" x="0px" y="0px"
	 viewBox="0 0 455 455" style="enable-background:new 0 0 455 455;" xml:space="preserve">
<g>
	<path d="M100.5,152.5h9.5v9.5c0,4.142,3.357,7.5,7.5,7.5s7.5-3.358,7.5-7.5v-9.5h9.5c4.143,0,7.5-3.358,7.5-7.5s-3.357-7.5-7.5-7.5
		H125V128c0-4.142-3.357-7.5-7.5-7.5s-7.5,3.358-7.5,7.5v9.5h-9.5c-4.143,0-7.5,3.358-7.5,7.5S96.357,152.5,100.5,152.5z"/>
	<path d="M320.5,97.5h9.5v9.5c0,4.142,3.357,7.5,7.5,7.5s7.5-3.358,7.5-7.5v-9.5h9.5c4.143,0,7.5-3.358,7.5-7.5s-3.357-7.5-7.5-7.5
		H345V73c0-4.142-3.357-7.5-7.5-7.5S330,68.858,330,73v9.5h-9.5c-4.143,0-7.5,3.358-7.5,7.5S316.357,97.5,320.5,97.5z"/>
	<path d="M354.5,302.5H345V293c0-4.142-3.357-7.5-7.5-7.5s-7.5,3.358-7.5,7.5v9.5h-9.5c-4.143,0-7.5,3.358-7.5,7.5
		s3.357,7.5,7.5,7.5h9.5v9.5c0,4.142,3.357,7.5,7.5,7.5s7.5-3.358,7.5-7.5v-9.5h9.5c4.143,0,7.5-3.358,7.5-7.5
		S358.643,302.5,354.5,302.5z"/>
	<path d="M155.5,372.5h9.5v9.5c0,4.142,3.357,7.5,7.5,7.5s7.5-3.358,7.5-7.5v-9.5h9.5c4.143,0,7.5-3.358,7.5-7.5s-3.357-7.5-7.5-7.5
		H180V348c0-4.142-3.357-7.5-7.5-7.5s-7.5,3.358-7.5,7.5v9.5h-9.5c-4.143,0-7.5,3.358-7.5,7.5S151.357,372.5,155.5,372.5z"/>
	<path d="M79.5,357.5H70V348c0-4.142-3.357-7.5-7.5-7.5S55,343.858,55,348v9.5h-9.5c-4.143,0-7.5,3.358-7.5,7.5s3.357,7.5,7.5,7.5
		H55v9.5c0,4.142,3.357,7.5,7.5,7.5s7.5-3.358,7.5-7.5v-9.5h9.5c4.143,0,7.5-3.358,7.5-7.5S83.643,357.5,79.5,357.5z"/>
	<path d="M447.5,0H7.5C3.357,0,0,3.358,0,7.5v440c0,4.142,3.357,7.5,7.5,7.5h440c4.143,0,7.5-3.358,7.5-7.5V7.5
		C455,3.358,451.643,0,447.5,0z M440,165H235V15h205V165z M220,290v150h-95V290H220z M220,15v260H15V15H220z M15,290h95v150H15V290z
		 M235,440V180h205v260H235z"/>
</g>
<g>
</g>
<g>
</g>
<g>
</g>
<g>
</g>
<g>
</g>
<g>
</g>
<g>
</g>
<g>
</g>
<g>
</g>
<g>
</g>
<g>
</g>
<g>
</g>
<g>
</g>
<g>
</g>
<g>
</g>
</svg>
